<svg width="640" height="480" xmlns="http://www.w3.org/2000/svg">
 <title>collections_06</title>

 <g>
  <title>background</title>
  <rect fill="none" id="canvas_background" height="482" width="642" y="-1" x="-1"/>
 </g>
 <g>
  <title>Layer 1</title>
  <path fill="#000000" fill-opacity="0" stroke="null" id="svg_1" d="m240.534838,451.997468a6.06054,7.134771 0 0 1 -6.06054,7.134771l-210.603755,0a6.06054,7.134771 0 0 1 -6.06054,-7.134771l0,-426.302588a6.06054,7.134771 0 0 1 6.06054,-7.134771l193.937271,0a6.06054,7.134771 0 0 1 4.302983,2.069084l108.301845,127.569712a6.06054,7.134771 0 0 1 1.757557,5.065688l0,91.824507a6.06054,7.134771 0 1 1 -12.121079,0l0,-88.899251l-96.180765,-113.086126l0,112.800735l68.181072,0a6.06054,7.134771 0 0 1 0,14.269543l-74.241612,0a6.06054,7.134771 0 0 1 -6.06054,-7.134771l0,-130.209577l-181.816192,0l0,412.033045l204.543216,0a6.06054,7.134771 0 0 1 6.06054,7.134771zm127.271334,-88.899251l-33.817812,-39.812024a6.06054,7.134771 0 0 0 -8.545361,10.060028l23.514894,27.682913l-65.453829,0a6.06054,7.134771 0 0 0 0,14.269543l65.150802,0l-22.969446,27.040783a6.06054,7.134771 0 1 0 8.42415,10.131375l33.332968,-39.241242a6.06054,7.134771 0 0 0 0.121211,-10.131375l0.242422,0zm40.4238,4.494906a84.847556,99.886799 0 1 1 -84.847556,-99.886799a84.847556,99.886799 0 0 1 84.605135,99.886799l0.242422,0zm-12.121079,0a72.726477,85.617256 0 1 0 -72.726477,85.617256a72.726477,85.617256 0 0 0 72.484055,-85.617256l0.242422,0z"/>
  <g id="svg_10">
   <path stroke="null" id="svg_7" d="m251.198925,452.178292a6.145843,7.169026 0 0 1 -6.145843,7.169026l-213.568047,0a6.145843,7.169026 0 0 1 -6.145843,-7.169026l0,-428.349309a6.145843,7.169026 0 0 1 6.145843,-7.169026l196.666979,0a6.145843,7.169026 0 0 1 4.363549,2.079018l109.826216,128.182187a6.145843,7.169026 0 0 1 1.782294,5.090009l0,92.265366a6.145843,7.169026 0 1 1 -12.291686,0l0,-89.326065l-97.53453,-113.629064l0,113.342303l69.140735,0a6.145843,7.169026 0 0 1 0,14.338052l-75.286578,0a6.145843,7.169026 0 0 1 -6.145843,-7.169026l0,-130.834726l-184.375292,0l0,414.011257l207.422204,0a6.145843,7.169026 0 0 1 6.145843,7.169026zm129.062705,-89.326065l-34.293804,-40.003166a6.145843,7.169026 0 0 0 -8.665639,10.108327l23.845871,27.815821l-66.375105,0a6.145843,7.169026 0 0 0 0,14.338052l66.067813,0l-23.292745,27.170609a6.145843,7.169026 0 1 0 8.542722,10.180017l33.802137,-39.429644a6.145843,7.169026 0 0 0 0.122917,-10.180017l0.245834,0zm40.992773,4.516486a86.041803,100.366365 0 1 1 -86.041803,-100.366365a86.041803,100.366365 0 0 1 85.795969,100.366365l0.245834,0zm-12.291686,0a73.750117,86.028313 0 1 0 -73.750117,86.028313a73.750117,86.028313 0 0 0 73.504283,-86.028313l0.245834,0z"/>
  </g>
 </g>
</svg>