<svg width="500" height="500" xmlns="http://www.w3.org/2000/svg">

 <g>
  <title>background</title>
  <rect fill="none" id="canvas_background" height="502" width="502" y="-1" x="-1"/>
 </g>
 <g>
  <title>Layer 1</title>
  <g id="svg_1">
   <path stroke="null" id="svg_2" fill="#000000" fill-rule="nonzero" stroke-width="4" d="m248.551361,5.023524a11.056107,11.107321 0 0 0 -9.845861,11.279745l0,222.1242l-221.100026,0a11.056107,11.107321 0 0 0 -1.036406,0a11.067162,11.118427 0 1 0 1.036406,22.21242l221.100026,0l0,222.1242a11.056107,11.107321 0 1 0 22.110003,0l0,-222.1242l221.100026,0a11.056107,11.107321 0 1 0 0,-22.21242l-221.100026,0l0,-222.1242a11.056107,11.107321 0 0 0 -12.264142,-11.279745z"/>
  </g>
 </g>
</svg>