<svg xmlns="http://www.w3.org/2000/svg" xmlns:xlink="http://www.w3.org/1999/xlink" version="1.1" x="0px" y="0px" viewBox="0 0 100 125" enable-background="new 0 0 100 100" xml:space="preserve"><path fill="#000000" d="M81.4,5.1H22.7c-4,0-7.2,3.2-7.2,7.2v11.9h-4.3c-0.8,0-1.5,0.7-1.5,1.5s0.7,1.5,1.5,1.5h4.3v6.7h-4.3  c-0.8,0-1.5,0.7-1.5,1.5s0.7,1.5,1.5,1.5h4.3v6.7h-4.3c-0.8,0-1.5,0.7-1.5,1.5s0.7,1.5,1.5,1.5h4.3v6.7h-4.3c-0.8,0-1.5,0.7-1.5,1.5  s0.7,1.5,1.5,1.5h4.3v6.7h-4.3c-0.8,0-1.5,0.7-1.5,1.5s0.7,1.5,1.5,1.5h4.3v6.7h-4.3c-0.8,0-1.5,0.7-1.5,1.5s0.7,1.5,1.5,1.5h4.3  v11.9c0,4,3.2,7.2,7.2,7.2h58.7c4,0,7.2-3.2,7.2-7.2v-75C88.6,8.4,85.4,5.1,81.4,5.1z M85.6,87.3c0,2.3-1.9,4.2-4.2,4.2H22.7  c-2.3,0-4.2-1.9-4.2-4.2V75.5h6.7c0.8,0,1.5-0.7,1.5-1.5s-0.7-1.5-1.5-1.5h-6.7v-6.7h6.7c0.8,0,1.5-0.7,1.5-1.5s-0.7-1.5-1.5-1.5  h-6.7v-6.7h6.7c0.8,0,1.5-0.7,1.5-1.5s-0.7-1.5-1.5-1.5h-6.7v-6.7h6.7c0.8,0,1.5-0.7,1.5-1.5s-0.7-1.5-1.5-1.5h-6.7v-6.7h6.7  c0.8,0,1.5-0.7,1.5-1.5s-0.7-1.5-1.5-1.5h-6.7v-6.7h6.7c0.8,0,1.5-0.7,1.5-1.5s-0.7-1.5-1.5-1.5h-6.7V12.3c0-2.3,1.9-4.2,4.2-4.2  h58.7c2.3,0,4.2,1.9,4.2,4.2V87.3z"/><text x="0" y="115" fill="#000000" font-size="5px" font-weight="bold" font-family="'Helvetica Neue', Helvetica, Arial-Unicode, Arial, Sans-serif">Created by Amy Schwartz</text><text x="0" y="120" fill="#000000" font-size="5px" font-weight="bold" font-family="'Helvetica Neue', Helvetica, Arial-Unicode, Arial, Sans-serif">from the Noun Project</text></svg>
