<svg xmlns="http://www.w3.org/2000/svg" xmlns:xlink="http://www.w3.org/1999/xlink" version="1.1" x="0px" y="0px" viewBox="0 0 100 125" enable-background="new 0 0 100 100" xml:space="preserve"><path fill="#000000" d="M94.2,22.5c-0.3-2-1.4-3.8-3.1-5l-3.3-2.4c-1.3-1-2.9-1.5-4.5-1.5c-2.4,0-4.8,1.2-6.2,3.2l-4.5,6.3v-3  c0-4.2-3.4-7.6-7.6-7.6H19c-4.2,0-7.6,3.4-7.6,7.6v63.2c0,4.2,3.4,7.6,7.6,7.6h45.9c4.2,0,7.6-3.4,7.6-7.6V56.3c0-0.1,0-0.1,0-0.2  l20.3-28C94,26.5,94.5,24.5,94.2,22.5z M63.3,63.8L52.5,56L77,22l10.8,7.8L63.3,63.8z M52.9,69.1l-2-1.5l0.7-8.5l9,6.5L52.9,69.1z   M69.6,83.2c0,2.6-2.1,4.6-4.6,4.6H19c-2.6,0-4.6-2.1-4.6-4.6V20.1c0-2.6,2.1-4.6,4.6-4.6h45.9c2.6,0,4.6,2.1,4.6,4.6v7.2L49.1,55.4  c-0.1,0.1-0.1,0.2-0.2,0.3c0,0,0,0.1,0,0.1c0,0.1-0.1,0.2-0.1,0.3c0,0,0,0,0,0.1l-1.4,16.1c0,0.5,0.2,1,0.6,1.3  c0.3,0.2,0.6,0.3,0.9,0.3c0.2,0,0.4,0,0.6-0.1l14.6-6.5c0.2-0.1,0.5-0.3,0.6-0.5l0,0c0,0,0,0,0,0c0,0,0,0,0,0l4.7-6.5V83.2z   M90.4,26.4l-0.8,1.1l-10.8-7.8l0.8-1.1c0.9-1.2,2.3-1.9,3.8-1.9c1,0,1.9,0.3,2.7,0.9l3.3,2.4c1,0.7,1.7,1.8,1.9,3  C91.4,24.2,91.1,25.4,90.4,26.4z"/><text x="0" y="115" fill="#000000" font-size="5px" font-weight="bold" font-family="'Helvetica Neue', Helvetica, Arial-Unicode, Arial, Sans-serif">Created by Amy Schwartz</text><text x="0" y="120" fill="#000000" font-size="5px" font-weight="bold" font-family="'Helvetica Neue', Helvetica, Arial-Unicode, Arial, Sans-serif">from the Noun Project</text></svg>