<svg xmlns="http://www.w3.org/2000/svg" xmlns:xlink="http://www.w3.org/1999/xlink" viewBox="0 0 75 93.75" version="1.1" x="0px" y="0px"><g><path style="" d="M 61.621094 37.648438 C 62.382812 36.84375 63.101562 36.035156 63.761719 35.226562 C 68.523438 29.382812 69.980469 24.097656 67.867188 20.347656 C 66.703125 18.292969 63.960938 15.84375 57.472656 15.84375 C 55.101562 15.84375 52.441406 16.183594 49.605469 16.820312 C 46.960938 8.101562 42.609375 2.625 37.5 2.625 C 32.425781 2.625 28.101562 8.023438 25.453125 16.625 C 22.578125 15.957031 19.882812 15.597656 17.484375 15.597656 C 11.210938 15.597656 8.507812 17.976562 7.347656 19.976562 C 4.804688 24.34375 7.269531 30.761719 13.328125 37.351562 C 7.1875 43.867188 4.648438 50.253906 7.132812 54.652344 C 8.292969 56.707031 11.039062 59.15625 17.523438 59.15625 C 19.894531 59.15625 22.554688 58.820312 25.394531 58.179688 C 28.039062 66.898438 32.386719 72.375 37.496094 72.375 C 42.570312 72.375 46.894531 66.980469 49.542969 58.375 C 52.417969 59.046875 55.113281 59.40625 57.511719 59.40625 C 63.789062 59.40625 66.488281 57.023438 67.648438 55.023438 C 69.8125 51.304688 68.421875 46 63.726562 40.09375 C 63.082031 39.28125 62.375 38.464844 61.621094 37.648438 Z M 17.523438 55.210938 C 13.949219 55.210938 11.480469 54.324219 10.570312 52.710938 C 9.128906 50.160156 11.175781 45.421875 16.121094 40.164062 C 18.160156 42.070312 20.480469 43.96875 23.050781 45.8125 C 23.34375 48.855469 23.796875 51.726562 24.390625 54.375 C 21.90625 54.917969 19.585938 55.210938 17.523438 55.210938 Z M 22.714844 40.605469 C 21.359375 39.53125 20.109375 38.453125 18.960938 37.382812 C 20.109375 36.339844 21.363281 35.289062 22.71875 34.238281 C 22.679688 35.308594 22.65625 36.394531 22.65625 37.5 C 22.65625 38.550781 22.679688 39.585938 22.714844 40.605469 Z M 23.0625 29.074219 C 20.507812 30.867188 18.195312 32.714844 16.160156 34.574219 C 11.277344 29.253906 9.289062 24.492188 10.761719 21.957031 C 11.664062 20.398438 14.054688 19.546875 17.484375 19.546875 C 19.570312 19.546875 21.917969 19.851562 24.4375 20.425781 C 23.828125 23.09375 23.363281 25.992188 23.0625 29.074219 Z M 47.617188 26.28125 C 46.746094 25.734375 45.859375 25.195312 44.957031 24.667969 C 44.070312 24.15625 43.179688 23.664062 42.289062 23.1875 C 43.8125 22.601562 45.304688 22.085938 46.769531 21.640625 C 47.09375 23.105469 47.378906 24.648438 47.617188 26.28125 Z M 37.5 6.570312 C 40.464844 6.570312 43.621094 10.785156 45.769531 17.832031 C 43.125 18.625 40.382812 19.640625 37.605469 20.863281 C 34.773438 19.574219 31.972656 18.503906 29.277344 17.667969 C 31.421875 10.71875 34.554688 6.570312 37.5 6.570312 Z M 28.269531 21.476562 C 29.773438 21.945312 31.316406 22.5 32.886719 23.132812 C 31.988281 23.59375 31.09375 24.074219 30.199219 24.578125 C 29.238281 25.125 28.304688 25.675781 27.390625 26.238281 C 27.632812 24.5625 27.929688 22.972656 28.269531 21.476562 Z M 27.382812 48.71875 C 28.25 49.265625 29.132812 49.800781 30.039062 50.332031 C 30.925781 50.84375 31.816406 51.335938 32.710938 51.8125 C 31.1875 52.402344 29.691406 52.914062 28.230469 53.359375 C 27.90625 51.898438 27.617188 50.351562 27.382812 48.71875 Z M 37.5 68.429688 C 34.535156 68.429688 31.375 64.214844 29.226562 57.167969 C 31.871094 56.375 34.617188 55.359375 37.394531 54.136719 C 40.226562 55.425781 43.027344 56.496094 45.722656 57.332031 C 43.574219 64.28125 40.441406 68.429688 37.5 68.429688 Z M 46.726562 53.527344 C 45.222656 53.050781 43.679688 52.503906 42.109375 51.871094 C 43.007812 51.402344 43.90625 50.925781 44.796875 50.421875 C 45.75 49.878906 46.6875 49.328125 47.605469 48.761719 C 47.363281 50.4375 47.066406 52.027344 46.726562 53.527344 Z M 48.15625 43.71875 C 46.46875 44.851562 44.695312 45.945312 42.855469 46.984375 C 41.046875 48.003906 39.230469 48.9375 37.417969 49.789062 C 35.625 48.917969 33.816406 47.960938 32.023438 46.914062 C 30.183594 45.847656 28.457031 44.75 26.832031 43.636719 C 26.6875 41.671875 26.605469 39.625 26.605469 37.5 C 26.605469 35.34375 26.6875 33.269531 26.835938 31.28125 C 28.496094 30.171875 30.261719 29.078125 32.140625 28.015625 C 33.945312 26.996094 35.765625 26.0625 37.574219 25.210938 C 39.371094 26.085938 41.179688 27.042969 42.972656 28.085938 C 44.773438 29.132812 46.511719 30.230469 48.164062 31.367188 C 48.308594 33.328125 48.390625 35.375 48.390625 37.5 C 48.390625 39.65625 48.308594 41.730469 48.15625 43.71875 Z M 57.472656 19.789062 C 61.046875 19.789062 63.515625 20.679688 64.425781 22.289062 C 65.652344 24.460938 64.257812 28.363281 60.699219 32.734375 C 60.125 33.4375 59.5 34.144531 58.839844 34.847656 C 56.777344 32.914062 54.460938 31.015625 51.945312 29.203125 C 51.652344 26.152344 51.203125 23.277344 50.609375 20.628906 C 53.089844 20.082031 55.410156 19.789062 57.472656 19.789062 Z M 52.28125 34.40625 C 53.609375 35.460938 54.859375 36.53125 56.023438 37.617188 C 54.859375 38.675781 53.605469 39.722656 52.277344 40.75 C 52.316406 39.683594 52.339844 38.601562 52.339844 37.5 C 52.339844 36.453125 52.316406 35.421875 52.28125 34.40625 Z M 64.234375 53.042969 C 63.332031 54.597656 60.945312 55.457031 57.511719 55.457031 C 55.425781 55.457031 53.078125 55.152344 50.558594 54.574219 C 51.171875 51.902344 51.632812 49 51.933594 45.910156 C 54.4375 44.144531 56.746094 42.296875 58.804688 40.417969 C 59.457031 41.128906 60.074219 41.84375 60.640625 42.554688 C 64.144531 46.96875 65.488281 50.886719 64.234375 53.042969 Z M 64.234375 53.042969 " stroke="none" fill-rule="nonzero" fill="rgb(0%,0%,0%)" fill-opacity="1"/><path style="" d="M 42.382812 37.5 C 42.382812 40.195312 40.195312 42.382812 37.5 42.382812 C 34.804688 42.382812 32.617188 40.195312 32.617188 37.5 C 32.617188 34.804688 34.804688 32.617188 37.5 32.617188 C 40.195312 32.617188 42.382812 34.804688 42.382812 37.5 Z M 42.382812 37.5 " stroke="none" fill-rule="nonzero" fill="rgb(0%,0%,0%)" fill-opacity="1"/></g><text x="0" y="90" fill="#000000" font-size="5px" font-weight="bold" font-family="'Helvetica Neue', Helvetica, Arial-Unicode, Arial, Sans-serif">Created by Lloyd Humphreys</text><text x="0" y="95" fill="#000000" font-size="5px" font-weight="bold" font-family="'Helvetica Neue', Helvetica, Arial-Unicode, Arial, Sans-serif">from the Noun Project</text></svg>