<svg xmlns:dc="http://purl.org/dc/elements/1.1/" xmlns:cc="http://creativecommons.org/ns#" xmlns:rdf="http://www.w3.org/1999/02/22-rdf-syntax-ns#" xmlns:svg="http://www.w3.org/2000/svg" xmlns="http://www.w3.org/2000/svg" xmlns:sodipodi="http://sodipodi.sourceforge.net/DTD/sodipodi-0.dtd" xmlns:inkscape="http://www.inkscape.org/namespaces/inkscape" version="1.1" x="0px" y="0px" viewBox="0 0 100 125"><g transform="translate(0,-952.36218)"><path style="text-indent:0;text-transform:none;direction:ltr;block-progression:tb;baseline-shift:baseline;color:#000000;enable-background:accumulate;" d="m 74.28123,963.85508 -20.9516,0.029 a 2.1305483,2.1305483 0 0 0 -1.4881,0.6127 l -39.7146,39.71462 a 2.1305483,2.1305483 0 0 0 0,3.0056 l 33.0322,33.0322 a 2.1305483,2.1305483 0 0 0 3.0056,0 l 39.714598,-39.7145 a 2.1305483,2.1305483 0 0 0 0.6128,-1.48832 l 0,-20.8347 a 2.1305483,2.1305483 0 0 0 0,-0.1459 2.1305483,2.1305483 0 0 0 -0.642,-1.4591 l 0.029,-0.029 -12.080698,-12.1099 a 2.1305483,2.1305483 0 0 0 -1.5174,-0.6128 z m -0.9045,4.2603 10.8551,10.826 0,19.2299 -37.5553,37.55522 -30.0558,-29.9975 37.5843,-37.58442 19.1717,-0.029 z m -6.1572,7.1492 c -2.5437,0 -5.1044,0.99 -7.0324,2.9181 -3.8562,3.8561 -3.8562,10.1504 0,14.0066 3.8561,3.8561 10.1796,3.8561 14.0357,0 3.8562,-3.8562 3.8562,-10.1505 0,-14.0066 -1.928,-1.9281 -4.4596,-2.9181 -7.0033,-2.9181 z m -0.5543,4.2604 c 1.6191,-0.1567 3.2989,0.4101 4.5521,1.6632 2.2279,2.228 2.2279,5.7676 0,7.9955 -2.228,2.2279 -5.7967,2.2279 -8.0247,0 -2.2279,-2.2279 -2.2279,-5.7676 0,-7.9955 0.9747,-0.9747 2.213,-1.5414 3.4726,-1.6632 z m -22.5857,14.4443 a 2.1305483,2.1305483 0 0 0 -1.4883,3.6767 l 1.5758,1.5758 -5.4859,1.48822 -3.3266,-3.32662 a 2.1305483,2.1305483 0 0 0 -1.5174,-0.6712 2.1305483,2.1305483 0 0 0 -1.4882,3.67682 l 1.5757,1.5757 -2.1593,0.5836 a 2.1306554,2.1306554 0 0 0 1.1089,4.1145 l 4.5521,-1.2256 4.0269,4.0269 -2.1885,0.5836 a 2.1306502,2.1306502 0 0 0 1.1088,4.1145 l 4.5522,-1.2257 3.3265,3.3267 a 2.1305483,2.1305483 0 1 0 3.0057,-3.0057 l -1.5758,-1.5757 5.4859,-1.4882 3.3266,3.3265 a 2.1305483,2.1305483 0 1 0 3.0055,-3.0055 l -1.5757,-1.5758 2.1593,-0.5836 a 2.1349716,2.1349716 0 1 0 -0.7586,-4.202 2.1305483,2.1305483 0 0 0 -0.3502,0.088 l -4.5522,1.2255 -4.0269,-4.0268 2.1886,-0.5836 a 2.1349725,2.1349725 0 1 0 -0.7587,-4.20202 2.1305483,2.1305483 0 0 0 -0.3501,0.088 l -4.5522,1.2256 -3.3265,-3.3266 a 2.1305483,2.1305483 0 0 0 -1.5174,-0.6711 z m 3.5891,8.72492 4.0269,4.0269 -5.515,1.4883 -4.027,-4.027 5.5151,-1.4882 z" fill="#000000" fill-opacity="1" stroke="none" marker="none" visibility="visible" display="inline" overflow="visible"/></g><text x="0" y="115" fill="#000000" font-size="5px" font-weight="bold" font-family="'Helvetica Neue', Helvetica, Arial-Unicode, Arial, Sans-serif">Created by artworkbean</text><text x="0" y="120" fill="#000000" font-size="5px" font-weight="bold" font-family="'Helvetica Neue', Helvetica, Arial-Unicode, Arial, Sans-serif">from the Noun Project</text></svg>